<svg width="556" height="448" viewBox="0 0 556 448" fill="none" xmlns="http://www.w3.org/2000/svg">
    <path d="M310.4 20.1C310.1 20.7 310.1 64.1 310.5 116.6C310.9 169.1 311 212 310.7 212C310.4 212 306.5 209.8 302 207.1C258 180.4 201.7 185.5 162.3 219.7C158.7 222.8 156 226 156 227.1C156 229.3 159.9 231.9 174.1 239C179.8 241.9 187.6 246.1 191.3 248.3L198.1 252.3L201.8 250.1C210.1 245.1 219.9 241 226.8 239.5C242.4 236.3 256.7 238.2 272 245.6C289.5 254 303.5 271.3 308.6 291C310.8 299.5 310.8 315.4 308.5 324C306.2 333.1 300.8 343.8 295 351.1C292.2 354.5 290 357.7 290 358.2C290 359.4 299.2 365.1 310 370.5C315.2 373.1 322 376.7 325.1 378.6C328.2 380.5 331.2 382 331.8 382C333 382 341.9 369.1 345.4 362.3C350 353.1 353.9 342.3 356.2 332.3C358.4 322.5 358.4 322 358.7 215.2C359 128 359.3 108 360.4 108C362.4 108 377.1 117.2 383 122.1C394.9 132.1 404.4 146.8 409.1 162.5C410.9 168.1 411.3 172.7 411.6 186C411.7 195.1 411.9 202.7 411.9 203C412.2 204.7 416.3 195.8 419 187.9C425.9 167.1 427.9 140.6 424 122.5C421.2 109.6 414.6 96.9 405.7 87.4C396.6 77.6 389.8 72.9 371.5 63.5C348.9 51.9 335.4 42.6 322.7 29.8C316.8 23.9 311.7 19 311.5 19C311.3 19 310.8 19.5 310.4 20.1Z" fill="white"/>
    <path d="M138.8 249.3C136.1 253.9 134 258.4 134 259.3C134 260.5 137.8 262.9 146.1 267.1C166.9 277.5 178.3 285.2 190 297C201.9 308.9 208.2 317.8 219.4 339C223.6 347 229.3 356.5 232.1 360.2C241.3 372.5 262.7 388.8 283 399C288.2 401.6 294.1 404.7 296 405.9C301 408.9 303 408.6 309.6 403.6C317.7 397.6 320 395.2 319.4 393.5C319.1 392.8 314 389.8 308.2 387C287.9 377.2 272.1 366.2 257.9 352C247.8 341.9 245.5 338.7 236 321C222 294.8 209.8 279.3 195 268.8C191.4 266.3 180.6 259.9 170.8 254.7C161.1 249.5 151.8 244.3 150.2 243.1C145.2 239.6 143.9 240.2 138.8 249.3Z" fill="white"/>
    <path d="M127.2 277.7C125.9 280.3 123.6 294.6 124.3 296.2C124.6 297 128.5 299.8 133.1 302.5C156.6 316.1 174.4 334.7 188.5 360.5C200.4 382.2 204.3 388.1 212.6 396.4C221 404.9 235.5 415.9 246.3 422C252.1 425.2 252.2 425.3 258.8 424.1C269.3 422.4 282.3 418.6 282.8 417.2C283 416.5 280.5 414.7 276.3 412.8C256.4 403.5 231.2 383.6 219.7 368.2C217.4 365 211.6 355.1 206.7 346C193 320.6 184.2 309.6 168.3 297.7C159.3 291 132.6 276 129.7 276C128.8 276 127.7 276.8 127.2 277.7Z" fill="white"/>
    <path d="M123.7 317.3C123.1 318.9 126.4 337.9 128.1 343C128.7 344.9 132.3 349.6 135.9 353.5C146.9 365.1 157 379.7 165 395.4C167.6 400.5 175.2 406.1 187.5 412C199.5 417.8 212.8 423 215.6 423C218.5 423 216.8 420.2 211.3 415.8C197.6 405 191.2 396.7 179.9 375.3C166.1 348.9 154.1 334.4 136.3 322.5C126.2 315.8 124.6 315.1 123.7 317.3Z" fill="white"/>
</svg>
