<svg width="303" height="406" viewBox="0 0 303 406" fill="none" xmlns="http://www.w3.org/2000/svg">
    <path d="M187.4 1.10001C187.1 1.69998 187.1 45.1 187.5 97.6C187.9 150.1 188 193 187.7 193C187.4 193 183.5 190.8 179 188.1C135 161.4 78.7 166.5 39.3 200.7C35.7 203.8 33 207 33 208.1C33 210.3 36.9 212.9 51.1 220C56.8 222.9 64.6 227.1 68.3 229.3L75.1 233.3L78.8 231.1C87.1 226.1 96.9 222 103.8 220.5C119.4 217.3 133.7 219.2 149 226.6C166.5 235 180.5 252.3 185.6 272C187.8 280.5 187.8 296.4 185.5 305C183.2 314.1 177.8 324.8 172 332.1C169.2 335.5 167 338.7 167 339.2C167 340.4 176.2 346.1 187 351.5C192.2 354.1 199 357.7 202.1 359.6C205.2 361.5 208.2 363 208.8 363C210 363 218.9 350.1 222.4 343.3C227 334.1 230.9 323.3 233.2 313.3C235.4 303.5 235.4 303 235.7 196.2C236 109 236.3 89 237.4 89C239.4 89 254.1 98.2 260 103.1C271.9 113.1 281.4 127.8 286.1 143.5C287.9 149.1 288.3 153.7 288.6 167C288.7 176.1 288.9 183.7 288.9 184C289.2 185.7 293.3 176.8 296 168.9C302.9 148.1 304.9 121.6 301 103.5C298.2 90.6 291.6 77.9 282.7 68.4C273.6 58.6 266.8 53.9 248.5 44.5C225.9 32.9 212.4 23.6 199.7 10.8C193.8 4.89999 188.7 0 188.5 0C188.3 0 187.8 0.5 187.4 1.10001Z" fill="black"/>
    <path d="M15.8 230.3C13.1 234.9 11 239.4 11 240.3C11 241.5 14.8 243.9 23.1 248.1C43.9 258.5 55.3 266.2 67 278C78.9 289.9 85.2 298.8 96.4 320C100.6 328 106.3 337.5 109.1 341.2C118.3 353.5 139.7 369.8 160 380C165.2 382.6 171.1 385.7 173 386.9C178 389.9 180 389.6 186.6 384.6C194.7 378.6 197 376.2 196.4 374.5C196.1 373.8 191 370.8 185.2 368C164.9 358.2 149.1 347.2 134.9 333C124.8 322.9 122.5 319.7 113 302C99 275.8 86.8 260.3 72 249.8C68.4 247.3 57.6 240.9 47.8 235.7C38.1 230.5 28.8 225.3 27.2 224.1C22.2 220.6 20.9 221.2 15.8 230.3Z" fill="black"/>
    <path d="M4.19966 258.7C2.89966 261.3 0.599656 275.6 1.29966 277.2C1.59966 278 5.49966 280.8 10.0997 283.5C33.5997 297.1 51.3997 315.7 65.4997 341.5C77.3997 363.2 81.2997 369.1 89.5997 377.4C97.9997 385.9 112.5 396.9 123.3 403C129.1 406.2 129.2 406.3 135.8 405.1C146.3 403.4 159.3 399.6 159.8 398.2C160 397.5 157.5 395.7 153.3 393.8C133.4 384.5 108.2 364.6 96.6997 349.2C94.3997 346 88.5997 336.1 83.6997 327C69.9997 301.6 61.1997 290.6 45.2997 278.7C36.2997 272 9.59966 257 6.69966 257C5.79966 257 4.69966 257.8 4.19966 258.7Z" fill="black"/>
    <path d="M0.699893 298.3C0.0998929 299.9 3.39989 318.9 5.09989 324C5.69989 325.9 9.29989 330.6 12.8999 334.5C23.8999 346.1 33.9999 360.7 41.9999 376.4C44.5999 381.5 52.1999 387.1 64.4999 393C76.4999 398.8 89.7999 404 92.5999 404C95.4999 404 93.7999 401.2 88.2999 396.8C74.5999 386 68.1999 377.7 56.8999 356.3C43.0999 329.9 31.0999 315.4 13.2999 303.5C3.19989 296.8 1.59989 296.1 0.699893 298.3Z" fill="black"/>
</svg>
