<svg width="100" height="100" viewBox="0 0 100 100" fill="none" xmlns="http://www.w3.org/2000/svg">
<rect width="100" height="100" fill="#080D21"/>
<path d="M54.1957 22.6919C54.1568 22.7723 54.1568 28.5848 54.2086 35.616C54.2604 42.6473 54.2734 48.3928 54.2345 48.3928C54.1957 48.3928 53.6906 48.0981 53.1079 47.7365C47.41 44.1606 40.1194 44.8437 35.0172 49.424C34.5511 49.8392 34.2014 50.2678 34.2014 50.4151C34.2014 50.7098 34.7065 51.058 36.5453 52.0089C37.2834 52.3973 38.2935 52.9598 38.7726 53.2544L39.6532 53.7901L40.1324 53.4955C41.2072 52.8258 42.4762 52.2767 43.3698 52.0758C45.3899 51.6473 47.2417 51.9017 49.223 52.8928C51.4892 54.0178 53.3021 56.3348 53.9626 58.9731C54.2475 60.1115 54.2475 62.241 53.9496 63.3928C53.6518 64.6115 52.9525 66.0446 52.2014 67.0223C51.8388 67.4776 51.5539 67.9062 51.5539 67.9731C51.5539 68.1339 52.7453 68.8973 54.1439 69.6205C54.8172 69.9687 55.6978 70.4508 56.0993 70.7053C56.5007 70.9598 56.8892 71.1606 56.9669 71.1606C57.1223 71.1606 58.2748 69.433 58.728 68.5223C59.3237 67.2901 59.8288 65.8437 60.1266 64.5044C60.4115 63.1919 60.4115 63.1249 60.4503 48.8214C60.4892 37.1428 60.528 34.4642 60.6705 34.4642C60.9295 34.4642 62.8331 35.6964 63.5971 36.3526C65.1381 37.6919 66.3683 39.6606 66.977 41.7633C67.21 42.5133 67.2618 43.1294 67.3007 44.9106C67.3136 46.1294 67.3395 47.1473 67.3395 47.1874C67.3784 47.4151 67.9093 46.2231 68.259 45.1651C69.1525 42.3794 69.4115 38.8303 68.9065 36.4062C68.5439 34.6785 67.6892 32.9776 66.5367 31.7053C65.3582 30.3928 64.4777 29.7633 62.1079 28.5044C59.1813 26.9508 57.4331 25.7053 55.7885 23.991C55.0244 23.2008 54.364 22.5446 54.3381 22.5446C54.3122 22.5446 54.2475 22.6115 54.1957 22.6919Z" fill="white"/>
<path d="M31.9741 53.3884C31.6245 54.0045 31.3525 54.6072 31.3525 54.7277C31.3525 54.8884 31.8446 55.2099 32.9194 55.7724C35.613 57.1652 37.0892 58.1965 38.6043 59.7768C40.1453 61.3706 40.9612 62.5625 42.4115 65.4018C42.9554 66.4732 43.6935 67.7456 44.0561 68.2411C45.2475 69.8884 48.0187 72.0715 50.6475 73.4375C51.3209 73.7857 52.0849 74.2009 52.331 74.3616C52.9784 74.7634 53.2374 74.7232 54.0921 74.0536C55.141 73.25 55.4389 72.9286 55.3612 72.7009C55.3223 72.6072 54.6619 72.2054 53.9108 71.8304C51.282 70.5179 49.236 69.0447 47.3971 67.1429C46.0892 65.7902 45.7914 65.3616 44.5612 62.9911C42.7482 59.4822 41.1684 57.4063 39.2518 56C38.7856 55.6652 37.3871 54.8081 36.118 54.1116C34.8619 53.4152 33.6576 52.7188 33.4504 52.5581C32.8029 52.0893 32.6346 52.1697 31.9741 53.3884Z" fill="#36CDEA"/>
<path d="M30.4719 57.192C30.3036 57.5402 30.0057 59.4554 30.0964 59.6697C30.1352 59.7768 30.6403 60.1518 31.236 60.5134C34.2791 62.3348 36.5842 64.8259 38.4101 68.2813C39.9511 71.1875 40.4561 71.9777 41.5309 73.0893C42.6187 74.2277 44.4964 75.7009 45.895 76.5179C46.646 76.9464 46.659 76.9598 47.5137 76.7991C48.8734 76.5714 50.5568 76.0625 50.6216 75.875C50.6475 75.7813 50.3237 75.5402 49.7798 75.2857C47.2029 74.0402 43.9396 71.375 42.4503 69.3125C42.1525 68.8839 41.4014 67.558 40.7669 66.3393C38.9928 62.9375 37.8532 61.4643 35.7942 59.8705C34.6288 58.9732 31.1712 56.9643 30.7957 56.9643C30.6791 56.9643 30.5367 57.0714 30.4719 57.192Z" fill="#36CDEA"/>
<path d="M30.0187 62.4956C29.941 62.7099 30.3684 65.2545 30.5885 65.9376C30.6662 66.192 31.1324 66.8215 31.5986 67.3438C33.023 68.8974 34.3309 70.8527 35.3669 72.9554C35.7036 73.6385 36.6878 74.3885 38.2806 75.1786C39.8345 75.9554 41.5568 76.6519 41.9194 76.6519C42.295 76.6519 42.0748 76.2769 41.3626 75.6876C39.5885 74.2411 38.7597 73.1295 37.2964 70.2635C35.5094 66.7277 33.9554 64.7858 31.6504 63.192C30.3425 62.2947 30.1353 62.201 30.0187 62.4956Z" fill="#36CDEA"/>
</svg>

